<?xml version="1.0" encoding="utf-8"?>
<!-- Generator: Adobe Illustrator 22.0.0, SVG Export Plug-In . SVG Version: 6.00 Build 0)  -->
<svg version="1.1" id="Layer_1" xmlns="http://www.w3.org/2000/svg" xmlns:xlink="http://www.w3.org/1999/xlink" x="0px" y="0px"
	 viewBox="0 0 364 364" style="enable-background:new 0 0 364 364;" xml:space="preserve">
<style type="text/css">
	.st0{fill:none;stroke:#16556D;stroke-width:11;}
	.st1{fill:#16556D;}
</style>
<g id="Group_1" transform="translate(-145 -258)">
	<path id="Rectangle-2" class="st0" d="M241.8,352.6h170.4c33.3,0,60.2,27,60.2,60.2v115.8c0,33.3-27,60.2-60.2,60.2H241.8
		c-33.3,0-60.2-27-60.2-60.2V412.8C181.6,379.5,208.5,352.6,241.8,352.6z"/>
	<path id="Rectangle-4" class="st1" d="M272.5,425.3L272.5,425.3c10,0,18.2,8.1,18.2,18.2l0,0c0,10-8.1,18.2-18.2,18.2l0,0
		c-10,0-18.2-8.1-18.2-18.2l0,0C254.3,433.4,262.4,425.3,272.5,425.3z"/>
	<rect id="Rectangle-4-Copy-2-2" x="319.8" y="316.2" class="st1" width="14.4" height="36.4"/>
	<path id="Rectangle-4-Copy-6" class="st1" d="M305.7,264.8h42.6c8.3,0,15.1,6.7,15.1,15.1v24.4c0,8.3-6.7,15.1-15.1,15.1h-42.6
		c-8.3,0-15.1-6.7-15.1-15.1v-24.4C290.7,271.6,297.4,264.8,305.7,264.8z"/>
	<path id="Rectangle-4-Copy-6-2" class="st1" d="M163.4,425.3h24.4c8.3,0,15.1,6.7,15.1,15.1V483c0,8.3-6.7,15.1-15.1,15.1h-24.4
		c-8.3,0-15.1-6.7-15.1-15.1v-42.6C148.3,432,155.1,425.3,163.4,425.3z"/>
	<path id="Rectangle-4-Copy-7" class="st1" d="M466.2,425.3h24.4c8.3,0,15.1,6.7,15.1,15.1V483c0,8.3-6.7,15.1-15.1,15.1h-24.4
		c-8.3,0-15.1-6.7-15.1-15.1v-42.6C451.1,432,457.9,425.3,466.2,425.3z"/>
	<path id="Rectangle-4-Copy" class="st1" d="M381.5,425.3L381.5,425.3c10,0,18.2,8.1,18.2,18.2l0,0c0,10-8.1,18.2-18.2,18.2l0,0
		c-10,0-18.2-8.1-18.2-18.2l0,0C363.4,433.4,371.5,425.3,381.5,425.3z"/>
	<path class="st1" d="M254,513c0,0,19.7,36.2,72.7,36.3c53.9,0.2,72.7-36.3,72.7-36.3H254z"/>
</g>
</svg>
